<?xml version="1.0" encoding="UTF-8"?>
<svg id="Layer_1" xmlns="http://www.w3.org/2000/svg" baseProfile="tiny" version="1.2" xmlns:cc="http://creativecommons.org/ns#" xmlns:inkscape="http://www.inkscape.org/namespaces/inkscape" viewBox="0 0 662.68 550.2">
  <!-- Generator: Adobe Illustrator 29.6.1, SVG Export Plug-In . SVG Version: 2.1.1 Build 9)  -->
  <g id="Page" inkscape:groupmode="layer" inkscape:label="Page">
    <path d="M-179.48-45.48h842.67v596.25H-179.48V-45.48" vector-effect="none" fill="#fff" fill-rule="evenodd"/>
  </g>
  <g id="Map_1:_Background" inkscape:groupmode="layer" inkscape:label="Map 1: Background">
    <path d="M-179-45h841.68v595.13H-179V-45" vector-effect="none" fill="#fff" fill-rule="evenodd"/>
  </g>
  <g id="Map_1:_ne_x5F_10m_x5F_admin_x5F_1_x5F_states_x5F_provinces" inkscape:groupmode="layer" inkscape:label="Map 1: ne_10m_admin_1_states_provinces">
    <rect x="-179" y="-45" width="841.71" height="595.05" fill-opacity="0"/>
    <g>
      <path d="M16.16,609.56l.54-1.4-2.34-6.78.12-3.2,2.03-14.37,3.34-23.66.65-15.25,1.71-9.68-.1-1.59-.92-2.41-.02-1.54.56-1.53,1.67-2.29.56-1.27,2.83-15.08,1.13-6.81,2.46-2.55,1.32-1.95,2.24-.82,1.47,2.08,1.82,2.46,3.12,1.8-1.49-7.75-2.14-1.2-1.86-1.45-3.6,2.67-1.52,1.12-1.44,1.4.28-3.42.49-5.6-.14-9.34,5.22-28.92,2.07-2.18,1.33-.8,2.67,1.04,1.4,1.79.5,1.19,1.46,1.91.55-2.62.99-1.62-.28-1.98-2.23-.96-.85,1.01-.75.15-1.44-.93-2.39-1.89-1.48,1.47-2.38,2.23-.46-.76.75-2.98.96-2.17.8-2.85.39-3.12-.83-2.19-2.21-.35-.59-.58,1.09-1,1.11-2.71,2.02-9.51.04-5.25-.89-4.6-1.35-3.71,1.58-7.22.46-4.63,2.32-3.92,1.55-5.08,2.45-5.13.55-4.94.24-1.95,1.42-1.22,1.34-1.73.03-2.86-1.29-2.19.31-2.12,2.02-6.16,1.01-7.8,1.72-11.91-1.9-2.93.4-2.56,2.04-4.7,3.92-5.67,1.64-6.19,1.35-6.44.24-3.54.47-4.89.22-5.02-1.22-3.01,1.86-8.79.62-2.05.85-5.43.54-5.37-1.78-8.3-2.85-1.41-2.59-.44.08-1.79,3.88-1.18,1.66-3.17.66-4.32.58-3.42.74-2.78.68-1.71.67-1.49.81.45-.43,1.07-1.32,7.96,3.16-2.68,2.44-4.1,2.62-3.1-6.5-4.23-2.8-5.13.57-11.09,2.43-5.55,1.14-8.41,1.11-2.25.23,8.25.9,6.81,3.12,1.42,1.54,3.09,4.02,2.22-.6-1.81.58-1.48.94-1.34.68-1.73-.3-1.9-.59-3.3-1.45-1.32-.4-3.64,1.05-5.66-5.41,1.35-4.02-3.96-1.73-2.01,1.19-3.85,1.74-7.85.79-7.07,4.03-3.54.07-5.51.68-1.5,1.47-.39,1.56,1.16,1.46.97,1.07.23,1.48-.88,1.67-2.91-1.13.42-.83.14-.79.34-2.07-.54-1.1-1.41-.72-1.93-1.77.92-.74,1.88-1.74.91-.5,3.05-.15,3.43-1.09,2.03-.19-1.86.7-8.16-.48-7.34-.98-2.4-2.9-2.19-.88-2.41.37-2.07-.8-.48-1.65.54-.1-1.96,2.67-3.5.47-3.74,1.59-5.09,1.1-15.02-.3-6.3-1.59-5.65-3.58-5.21,1.61-2.58,1.77-1.14,1.72-3.65,2.46-1.29,3.2-1.81,1.15-3.33,1.17-5.55-.67-6.11-1.05-11.71-2.09-10.07-6.34-21.34-5.5-8.17,1.02-1.16,2.68-.48,2.52,3-1.28,1.63,1.69,2.72h2.9s3.19,1.59,3.19,1.59l4.77,3.94,1.33,2.7.97-.2,1.19.41.47,3.03,3.56,1.36,2.47,1.18,5.82-.45,1.74,1.52,1.09,2.57.75,5.14v3.56s2.38,3.16,2.38,3.16l-.14-3.5-.06-3.78.29-3.47,3.99,1.83.06-1.63-1.5-1.68-3.45-4.84-1.62-1.06-1.97-.27-2.99-.39-1.16-1.13-1.88-1.05-.78-1.48,1.72-.65,3.63-.08,2.77.24,4.18-.87,3.59-1.91,2.2-.62,2.07,2.26,3.12,4.74,1.64,2.09,3.86.05,16.83-3.45,2.7-1.3-3.7-1.4v-2.14s2.43-1.01,2.43-1.01l4.67.82,3.11-2.5,4.24-2.35,1.07-2.01,3.15-.22,3.99.79,2.19.8,2.02,3.36,3.58,2.82,2.76,2.43.83,2.92.24,2.77,1.58,2.04,2.65,2.94,3.59,3.28,10.75,2.28,4.85-.38,3.89,1.98,3.85.29,4.23-.86,2.32-2.57,2.96-4.44,2.27-1.94,2.48-1.69h.52s.94.2.94.2l10.99-1.73,3.51,1.09,2.35,2.53,6.23,5.03,2.47,1.49,5.52,1.18,5.87,2.76,5.54,3.68,4.51,3.9,3.23,4.12,3.06,5.45,2.25,5.9,1.67,10.03,2.33,2.97,2.88,2.58,2.46,3.39.97,4.36,1.14,11.86,3.11,9.23-.47,4.82-1,5.26-.04,5.96,3.95,7.35.66,2.6-.25,2.87-.92,5.01-.26,2.89.61,10.24,1,5.88,1.58,4.4,3.06,3.73,4.26,3.57,4.46,2.72,14.27,3.33,7.45-1.85,2.73.16,5.87,3.26,9.32,2.76,5.41,3.29,15.5.64,14.67,5.75,3.57-.89,3.19-2,13.8-3.9,33.02-12.03,7.43-4.51,12.74-10.42,7.67-4.23,5.18-.95,13.71,3.18,27.03-4.7,54.57,6.02,8.66,3.17,3.66,3.17,1.8,3.84,1.4,4.61,2.43,5.49,3.26,2.53,4.05-.47,16.36-7.41.92-.1,3.87.21,2.01.59,1.03.1,6.04-.31,2.04.3,2.63,1.22,7.81,1.04,7.83-2.29,2.48-.16.96-.31,8.15-6.45,1.35-.58,13.07-2.66,8.63-3.5.68-1.93,1.27-1.52,4.87-3.25,1.91-.47,27.61,5.43,2.13-.22,4.44-2.23,1.59-.37,9.44,1.74,2.09-.28,4.16-1.72,7.18-4.35,1.92-.53,2.79.05,5.4,1.09,1.41-.15v438.44H16.16" vector-effect="none" fill="none" stroke="#232323" stroke-linecap="square" stroke-linejoin="bevel" stroke-width="1.87"/>
      <path d="M158.36,25.59l1.72.36,1.94,1.96,2.75,3.15,1.24,4.1-.82,1.84-2.1-1.39-2.8-1.86-1.59-2.96-.71-3.49.37-1.71" vector-effect="none" fill="none" stroke="#232323" stroke-linecap="square" stroke-linejoin="bevel" stroke-width="1.87"/>
    </g>
  </g>
  <g id="Map_1:_isochrone_x5F_tillamook_x5F_geojson" inkscape:groupmode="layer" inkscape:label="Map 1: isochrone_tillamook_geojson">
    <rect x="-179" y="-45" width="841.71" height="595.05" fill-opacity="0"/>
    <path d="M102.49,127.54l-.41.36-.14,2.09-1.11,1,.14,1.22-1.35,1.23-.22.76-.57.22-.31,1.19-1.18.46.31,3.03,1.47-.05v1.35s-1.24.29-1.24.29l-.26.69-.8.38-1.5-.47-.14-.8-.5-.18-.51.14-.3.78.03-1.21.58-.2.14-.72.04-2.32.98-.77-.76-.62-.99.2-.36,1.38-.66.35-1.21,5.24-.68-1.39-.8-.06-.13-.82-1.2-.84-.76.72-.68-1.28-.37.44-.74,1.51,1.03,3-.13,2.27-.69.18-.27,4.02-.73-.93-.73-.04-.21.59-.3,2.35.37.47.76-.56.12,1.19-.7.28-.22.77-1.38-2.85-1.25-.15-.06,1.5.55.38-.78.04-.22-.83-.47-.2-.48.16-.29.76-.12-.92-.68-.25-.2-1.58-1.06-.87-2.03-.02-.14-.64-.54.09-.24.75,1.45.44.99,1.31.43,1.61-1.2.89.34.59.72.19.67,1.38-1.01.63-.52,1.03-.83.33,1.48,2.19-.8-.02-.33-.56-1.44-.09-.48,1.61-.72-.05-.03-.95-.66-.12-.06-.9-1.18-.05-.21.88.02-1.99-.68-.17.63-.21.07-2.62-1.25-.21-.76.89-2.21.14-.76-.22-.04-.94-.67-.19.89-.1.61.59.89-.19-.32-1.94-1.24-.35.04-1.22,1.39-.05.13-.9.63-.12.14-.9.63-.13.24-2.05h2.71s.51-.72.51-.72l-.96-.7-2.99-.4.66-1.13-.46-1.78-1.22,1.07-.23.75-.6.18-.33.78-.05-1.91-.6-.21-.07-1.89-.62-.33,1.59-.33.48-.63.15-.8-.44-.41v-.89s.36-1.03.36-1.03l-.45-1.07,1.33-.99-1.16-.67-.87-1.51.74-1.02.25-1.98-.25-1.16-.94-1.23-.04-1.45-.12.38-.33,2.24.49,1.8-.07,1.67-.78.7-.29,5.22-.6.38-.17.64-.2,5.01-.65,1.23v2.09s.33.56.33.56l.73.16.66-.79.83.05.13.93,1.36.31-.67.18-.14.9-.65.11-.11.94-.67.07-.13.91-.65.09-.22,4.87.65.14.04.94,1.38.16.08.88.61.19.05.92.63.16-.1,4.08.67.19-.1,6.95,1.2.22.77-.95-.03,2.15.7.11-.09,2.09-.71.04-.12,2.04-.7.02-.12,2.04h-1.43s-.08.98-.08.98l-.7.02-.33,7.24-.71.03-.29,6.2-.72.03-.24,5.16-.72.03-.12,2.05h-.71s-.08,1.98-.08,1.98l2.12.09.08-1.01v1.02s1.44.1,1.44.1l-.02,1.01.71.06-.02,1.01,1.44.1-.02,1.01,2.16.12v1.02s1.39.06,1.39.06l.06-1.01.76.03-.72.04-.13,3.04.71.06-.02,1.02.72.07-.16,4.14,1.45.09-.02,1.02.72.07-.07,2.05,1.45.09-.06,2.06.71.06-.02,1.01,1.41.06.06-1.01.74.02v1.02s.71.07.71.07l-.07,2.04,1.41.06.07-1.02-.03,1.07-1.49-.05.02-1.01-.71-.06.02-1.01-2.13-.08-.08,1.98.71.07-.04,1.08-1.45-.02-.06,1.01h-.71s-.08,1.02-.08,1.02v-1.01l-2.16-.12v-1.02s-.71-.06-.71-.06l.02-1.01-1.44-.1v-1.01s-.69-.07-.69-.07v-1s-1.41-.09-1.41-.09v-1.01s-1.44-.1-1.44-.1v-1s-.69-.07-.69-.07v-1s-.69-.08-.69-.08v-1.01s-.69-.07-.69-.07l.09-3.08-.68-.07h-.68s-.22,4.13-.22,4.13h-.71s-.09,1.02-.09,1.02l-2.16-.05-.15,3.06-.72.02-.08,1.02-1.43-.03-.08,1.97,1.45.12-.72.02-.15,3.08-.72.02-.08,1.98.71.07-.07,2.06.71.06-.02,1.01.71.06-.06,2.06.71.06-.02,1.02,1.45.09-.07,2.06.72.06-.02,1.02.72.06-.02,1.02.72.06-.02,1.02.72.06-.11,3.1.72.07h-.72s-.11,2.07-.11,2.07l-1.45-.03-.06,1.01h-.72l-.07,1.02-1.44-.04-.1,2.04-.72.02-.11,2.06.03-2.05-1.39-.06-.07,1h-.71s-.24,5.17-.24,5.17l-.72.02-.06.99-.07,2.04.72.08-.72.02-.08,1.98,1.45.1-.66.12-.08,1.83,1.4.16-.7.1-.12,1.99v.95s.69.12.69.12l-.04,1.99,2.07.09.09-.97.7-.03.13-2.03,1.51.09-1.44.02-.08,1.92.7.11-.09,2.12h-.71s-.09,1.02-.09,1.02l-.08-1.91-1.15-.05-.24,1.92-.12-1.88-1.07-.05-.32,3.88-.7.1-.08,1.84,1.41.15-.03,2.01,1.31.06.1-.96.7-.03.09-.98.7-.03.12-2,.72-.04.12-2.05,2.97.13-.07,2.12h-1.46s-.07,1-.07,1h-.71s-.07,1.01-.07,1.01h-.71s-.07,1.01-.07,1.01h-.71s-.07,1.01-.07,1.01l-1.45-.02-.12,2.04h-.71s-.07,1.01-.07,1.01h-.71s-.09,1.02-.09,1.02l-1.43-.02-.15,3.06-.71.04-.55,13.41.7.13-.04,1.98,2.89.2v.98s.7.13.7.13l-.05,1.99,2.91.19-.08,2.12-.71.06-.11,1-1.48-.06-.04-.98-1.35-.12-.7.03-.13.98-.07-.95-1.25-.05-.13,2.83,1.41.2-.71.07-.09.97-.81-.07.03-1.95-1.28-.06-.11.94-.68.06-.34,7.27-.61.17-.32,3.89-1.42.1-.24,4.07-.66.1-.17.96-1.3.11-.07,1.55,2.02.25.6-.07.14-.9.67-.07.15-.95.05.98.67.12.03.95,1.38.13.06.98,1.38.13.06.97,1.42.21-.17,4.17-.68.15-.22,3.9v1.99s.65.23.65.23l-.67.19-.14.9-.41-1.59-1.01-1.33-.74-.1-.9.89-1.03-1.63-1.14.48-.46-1.38-.84-.4-.86.34-.44,1.18.43,1.59,2.3.48.08,1.87,2.05.44-.15,1.17h-.86l-.6-.51-.63.48.14,1.44.48.49-1.27.41-.42,2.22-.7-1.1-.73-.2-.76.51-1.45-.76-.66,3.89-.72,1.01.31,2.92.68,1.31,1.53-1.05.71.72,1.48-1.61-.17-1.05.5-.28-.09,1.11.25-.22.54.49-1.21,1.82.08,1.86,1.31-1.95.87-.65,1.36-2.59,1.17-.42-.75-1.16,2.04-.9.14-1.31.72-.75-1.21-.72-.76-1.57.9.05.17.77.45.22.47-.18.23-.76h.82s.24.81.24.81l1.81,1.62.8.42.77-.67.29.82,2.74,1.41.55.9,1.47.31,3-.82.36-1.64,1.59-.34.26-1.04-1.47-.25-2.15,1.58-.54-.46-.07-1.05-.82.15-1.41-1.87-2.21-.32-.7-1-1.6.79.03-1.3,2.76-1.3.39-.77,1.84-.23.32-2.83,1.67.02.72-1.89,1.26-.27.48-.57-1.54-1.75-.1-.58,1.62-.52.73.17.17-.42-.88-.25-.83-1.05-1.36.13-.77.67-1.41-1.77-1.19.36-.34.73-.13-.94-.62-.19-.07-.9-2.06-.21-.1-.96-1.38-.19-.04-.93-2.83-.22v-1.07s-.77-.96-.77-.96l-1.39-.18.67-.18.11-.94.65-.11.18-.97,1.89-.28.57-1.35-.14-.68-.73-.2-.66.73-.85-.07-.06-1.03-.66-.21,1.42-.03.1-.96.67-.07.15-1.07.7,1.02h.74l.78-.93.71.85.74-.61-1.74-4.62-.99-.14.07-1.68.77.04.03.94.63.1,1.36-.05.13-.91.81.03-.04,1.16-.62.15-.07,1.61.61.19.04.93.65.15.3.6,2.55.91.48-.66-.06-1.13-1.16-.61h1.58s.04,1,.04,1l1.39.12.05.98.68.11-.68.15-.12,1.95-.66,1.28-.93.04-1.26,1.03-.45,1.7.35.69.84-.13,1.19-1.63.71.88.78-.83.71.78.34-.12.43-.45-.23-1.06,1.1-2.11.73,1.1.03.95,3.63.24-.06,2.23-.7.92.05,1.72.43.43.78-.33,1.03.37.81-1.01-.33-1.13h3.61s.18-.9.18-.9l.78.06.06.91,1.21.05.17-.92.06.98,3.63.24.19,2.62-.94.54.35,1.31,1.43-.54.39-.83,1.33,1.02h.74s.61-.76.61-.76l.21-1.13.12.93.3-.19.5.44.12,2.51,2.32.47.54-.27.46-1.63.18.86,1.23.86.87-.3,1.13-1.59,1.01.53.38-1.11-.48-.83v-1.28s.86-1.22.86-1.22l.95.14.51,3.31.77.18,1.43,1.42.69-1.71,1.6.03.5.53,2.56.64,1.29,1.31,2.98-.41.7.95,1.67-.35-.86-1.36-3.68-.55-1.4-2.18-1.48-.13-.7-1.07-1.5.39-.68-1.58-1.55-.16.88-1.5.75-.16.27-.81-1.14-.5-.53-.87h-1.48s-1.4-2.05-1.4-2.05l-1.44,1.58-1.45-.02-.44-1.76-2.1-.62.03,1.33,1.05.61-.11,1.33-.3-.8-.48-.2h-1.48l-.44.79.08.44,1.15.65-.25,3.22-.08-2.19-1.26-1.11-.8,1.31-1.36.94-1.63-.22-.06-.98-2.15-.18,1.38-.18.1-.85v-1.89l-1.19-.05-.13.9-.83-.09.68-.13.14-3.11.58-.89v-1.05s-.56-.26-.56-.26l-.45.42-1.35.13-.35,1.84-.04-1.08-.69-.15.05-1.1h1.44s.25-6.06.25-6.06l-.69-.09.03-1.07.71-.07.11-1,3.57.02.17-.96,2.22-.04,1.41-1.8-.57-.7-.74-.09-.67.86-3.68-.13-.15.95-2.95-.14.02-2.05-.72-.12.68-.13.15-1.03.53-.13.06-1.49-.57-.42,1.21-.35.23-1.86.64.66,1.72.54,1.17-.79-.5-.87.12-4.37.25.12-.03.84.7.13-.04,1.98,2.16.16-.67.16-.07,1.8,2.02.09.1-.95.68-.06.1-.96,1.4-.06.95-2.4.45.52.19,1.85,2.22-.75-.04-2.84-4.11-.23-.12.91-.67.08-.15.95-2.95-.13v-2.04s-.68-.1-.68-.1v-.98s-2.15-.14-2.15-.14l-.03-1-1.43-.12.67-.14.1-.96.67-.08.12-1.93.62-.24.15-.88.5-.34.18-1.62.24.97,1.41.1.68-.02.13-1-.1,4.09,1.42.19-.66.15-.12.93-.63.14-.17,2.75.12.83.47.2.48-.17.28-1.79,1.41-.05.16-.93.11.92,2.67.11.53-.29.36-3.66.7-.26.24-.9.12.98,1.34.23.03.96,1.29.05.1-.95.69-.04.12-1.98.72-.06.1-1,4.42.17.03,1,1.43.12-.69.12-.09.97-.68.06-.13.99-.09-.94-1.96-.07-.07,1.72.64.15.04.95.66.13.09.88,1.14.27-.66,2.07.72.84.75-.13,1.55-1.81,1.83-.33.46-1.56.05,1.97.82.21.27,1.34.45.41,1.44.43.43-2.08-.63-1.07.6-.3.22-1.87.84.1.03.96,1.41.14.03.95,3.59.2.09.95.65.14.05.92.65.14.06.91,1.38.18.07.9.63.17.8.95.2,1.26-.44,1.03.44,1.06.41.24.6-.42.08,1.27,1.32.75.67-.82.81.74.86-.67,1,1.22-.65,1.02.86,2.43.75-.25-.38-1.09.77-2.43-.66-1.75.91-2.06-.32-1.25-1.07.77-.5,1.63-1-.84-1.18-.24-.33-1.76-1.21-2.4-.51-.25-.78,1.07-.14-.92-.61-.2-.65-1.04-.78-.07-.05-.92-.64-.16-.05-.93-.67-.2.68-.15.16-.96h4.25s1.16-.42,1.16-.42l-.59-1.84-1.21-.4-.84-.88-.16-.79-.96-.37.74-1.47,2.09-.11.22-.92,2.66-.18,1.08-1.01,5.17.11,1.06-1.54-.08-1.05-1.03.85-2.26-.16-.6.5-.69-1.29h-2.33l-.27-1.64-1.01-.76-.59.09.16,1.05.84.41.06.67-2.03,2.13-1.57.29-.76.68-1.8-1.23-.34-.75-.63.92h-.73s-.28.8-.28.8l.83,2.12-1.19.5-.39,1.61-.67.08-.24,4.05-1.51-.04-.06-.98-1.42-.19,1.41-.11.11-.94.64-.13.16-2.92-.6-.92-1.47-.06-.55,1.22-1.72.05-.85.68-.57-.02-.09.96-.81-.07.05-1.09.65-.1.12-.93,1.91-1.48.66-1.49-.14-1.45-2.99.95-.68-1.5-.74.18-.06,1.67-.82.93-.72,3.18.06.78,1.28.37-1.48-.06-.03-1-.69-.09v-.98s-1.41-.1-1.41-.1l-.03-1-2.15-.13-.02-1-2.09-.08-.1,1-2.23-.1.1-2.15,5.12.18,1.15-.45.36-.48v-1.94s-2.12-.23-2.12-.23l.71-.07.08-.98.69-.04.11-1,.06.97,5.2.15.43.43.9-.13.29-.73.99-.33-1.17-1.81-.98-.36.13-2.09-.51-.78-.88-.32.43-1.03-.19-1.16-1.15.56-.28.68-2.17-.02-.13.9-.67.08-.24.99-.41-1.44-.9-.42-2.12,1.85-.09.97-.85-.13-.03-1.03-2.14-.13-.67.02-.1,1-2.09.05-.13,2.81.66.13v.97s.71.09.71.09h1.36s.13-.96.13-.96l-.07,2.12-.05-.96-1.35-.05-.08.98-.7.02-.08.99-.71.02-.09,1.01-1.48-.06v-1.01s-2.92-.16-2.92-.16l2.97.05.03,1,.67.07.67-.02.08-.98.69-.04.07-1.88-1.42-.13.04-2.03-.69-.09v-.98s-.7-.09-.7-.09v-.98s-.7-.09-.7-.09v-.97s-5.18-.31-5.18-.31l1.02-1.89-.11-1.28,1.15-.44.33-.6,1.42-.03.92-1.04,1.7-.45.02-.59-.93-.47-.09-.46.7-.04.18-.93,2.05-.06.57-.79.15-1.04-1.14-1.09v-1.45s1.52-.82,1.52-.82l.54,1.49.68-.17-.43-.15.17-3,.49-.13.24.96,2.77.29,1.25,1.16.15.68,1.56-2.15,1.48-.08,1.52.6.63.98.7-.94,1.38-.09.21-.89,2.76-.06.23-1,2.22-.24v2.52s.67.2.67.2l-1.39.07-.22.96-.6-1.8-.64.8-1.42.02-.92.76,1.49.99-.12,2.14.4-.37,1.04.22.71.85.76-.68,1.22,1.51,1.03-.36.54,3,.74-.1.58-.89.28-2.26,2.1-2.61-.28-1.33-1.61-1.54-.71.67.17,1.05-.76.32-.28.82-.04-2.06-.65-.14.16-4.23-1.38-2.11.03-1.03.72-.1.11-2.01.72-.05.09-1.01-.02,2.05.71.11-.05,2,1.43.11v.98s.7.09.7.09v.97s.71.13.71.13l-.03,1.97,1.41.13.04.94,1.36.12.11.93,1.33.15.95.83.65,2.12.68.37.09,2.09.37.14,1.51-.98-.89-.95.17-2.21-.37.24-.43-.66.91.03.24-.79,2.31-.96-1.64-2.75-1.49.5-.72-.6-.4,1.14-1.63-.3-.28.81v-1.24s.83-.1.83-.1l.73-1.8-.45-1.06.59-.66,1.73-.3.65-2.18-.87-.84v-1.98s-.61-.2-.61-.2l-.02-.96-2.86-.22.05-2.19,1.07-.28,1.85,2.23.72.34.74-.19.27-1.13-.95-.4-.07-.48,1-.08.3.6,1.79-.28-.44-2.11-.98-.82-.75.32-.09-.62.86-.18.59-1.86-.52-1.11,1.39-.07.16-.97.16.88.54.16,4.1-.18.56-.24.12-.75-.27-.96-1.49.59-.46-.68-2.56-.6-.7-1.07-1.26-.1-.65.11-.19,1.82-.7.12-.1.95-2.26-.1.11-3.22,1.89-.41-.03-2.6,3.42-3.01.62-2.07-.38-.79-.78-.23-.06-.91-1.17-.04-.14.89-.81-.04.06-3.07-.67-.11-.02-.97-.68-.1-.07-1.89-.63-.26h.83s.04.93.04.93l1.26.05.18-.95.74.08.85.8,1.27.15.5-.15.22-1.74.75-.09.12-.99.14,1.87.58.23.08.89.62.18.11.85.61.19.15.8,1.18,1.2,1.45.61.65-1.33-.71-.88.12-1.33.59.39,1.07-.05.36-1.22-.63-.77-1.26.12-.72-.37-.08-1-.65-.14-.04-.95-2.12-.19.04-3.04-2.83-.25.76-1.02-.48-1.07,1.99-.06.12.96.65.24.06,1.81.53.16.54-.12.18-.83.65-.11.18-.92.18.84.6.2.24.67.76.03.44-3.74.78.34,2.85-1.38.86.43.67,1.65.77-.84.71.8,1.44.38.05-1.02.83-1.08-.83-.9.05-1.16.69-.15.12-.92.67-.07.14-.96.78.05v1.1s.9.7.9.7l1.13,1.87.63-.38.16-1.16.08,1,.31-.27.71.48-.46,1.19,1.45.58,1.01-1.38-.08-.52-.65-1.13-.95-.73-.09-.88-.6-.21-.07-.9-1.37-.27,1.54-.04.18.85,1.81.1.1-2.63-.55-.38,1.47.02.4.6,1.25.34.45,2.13,2.78-2.04,1.67.91.76-.8.48.65.17,1.81,1.23-2.09-1.45-3.19,1.16-.48.7.89,1.45-.3-.76-.95-.04-1.94-1.31-.25-.02-1.97-.83-.22-.53-.97.72-.2.85-3.09,1.19-.37.32-.61,3.76.16.05.93.68.19.03,1.87.66.25v2.09s.54.94.54.94l.74-.13.57-.75.15-2.09-.09-.73-.57-.25-.07-.9-.61-.19.13-2.24,2.93.09.11.93,1.4.14.9,1.19,1.6,1.1-1,1.01-.13,1.04.11.68,1.25.33.08.9.62.17.08.89.67.26-1.35,2.05.41.63,2.92.34.83-.92v2.4s-.49.81-.49.81l.28,1.15.24-.83,1.25.17.46-.42-.18-1.05.41-.13.21.99,1.41.13-.47,1.15.63.63.29,1.49-.96,1.01,1.69,1.56.78-1.39,1.65,2.05-.4,1.2,1.84.55.99,1.68.12,1.04.72.32-.48-2.61-1.1-2.13.43-1.22-.87.03-.89-.7-.87-2.37,1.13-.26,1.48.32.66,1.7,1.56-2.65-3.17-.79-.16-1.78-.64-.7,1.34-1-.88-.6-.08-.62h3.04l.71.9,2.17.51,1.43,1.58,1.31-.47-.47-.13-.22-.93.4-.72.52-.12,1.78.47.38.9.77-1.01,1.07.16.37.76,1.53-.21-.78-.19-.6-1.04-5.8-1.28-1.81-1.59-1.25-.34-.63-1.7-.55,1.94-.55.06-.63-.77-.4,1.35-.9.41-.69-1.3-1.25-.24-.52-1.6-1.07-1.29-.89.52-.67,2.19-1.43-1.19-.75.34.3,2.41,1.07.32.06.37-.92.03-2.84-1.22-.08-.89-.61-.18-.09-.88-1.36-.3.14-7.07-.62-.18-.21-.72-.54-.28-1.18.05-.26.86-.89-1.81-1.28-.43.62-.28.92-1.89.83-.1.59-.77.74-3.11-.48-.05-.52,1.4-1.09.8-.09-1.87-.71-1.43-.38-2.29-.82,4.34.13,2.1-.96,2.06.21,1.05-.38.98-.71-.73-.72.81-2.1.08-.22,1.94-4.4-.16-.57.16v1.12s-3.64-.11-3.64-.11l-.48,1,.91,1.86-1.41.03-.12.98-.14-.86-1.75.09-.34,2.73-.7.09-.07.99-1.51-.05-.09-.93-.33.24-3.47-.54-.42-1.56-.76.84-1.39-2.24-1.34,1.78.69,1.81.58.23.08.89.59.22-.71.12-.1.99-2.14-.03-.1,1-1.47-.05-.03-1-2.14-.12-.03-1-1.33-.05-.08.98h-1.43s-.07,1-.07,1l-3.64-.09-.07.99h-1.43l-.09,1h-1.42s-.09.99-.09.99l-4.42-.18v-.99l-.71-.11.04-2-.69-.08.03-1.07.7-.08.08-.97.68-.05.12-.99,1.38-.02.09-.96.67-.07.1-.95.66-.08.1-.95.66-.09.06-1.77-.67-.19.66-.18.18-.97,1.25-.13.16-3.07.78-.77-.26-.44-1.12-.82-.34,3.29-.42.43-.68-1.38-1.47-.03-.25-.83-.45-.21-1.25.07-.58.71-.19,1.43-2.49.27-2.29,2.39-.1-1.94-1.57-.91-.55-2.56-1.31-1.26-.52,1.19.77,1.08-1,1.25-1.09.26-.04,1,1.05,1.06,2.22-.55.15.94.61.29v2.89s1.31.35,1.31.35l-2.85.02-.16.93-.22-.77-1.8-.22-.91.94-.24-1.8-.42-.23-1.14.22-.37.74-2.59-.29.34,1.76.83.22.83,1.89.92.04.3-.8v1.27s-1.4.06-1.4.06l-.2,2.01-1.47-.03-.21-.84-.57-.24-.79-1.2.32-1.03-.81-.37-.68,1.51-.57.23-.22,1.88-.84-.88-1.01.23.3,4.29.59.3-.66.17-.18.95-1.26.14-.02,2.44.94.09.27-.69h1.5s-.07,3.08-.07,3.08l2.04.08.15-.93-.04,1.09h-3.84s-.58-.74-.58-.74l-.37.51-.07,1.56.57,1.24.54.29.11.85,1.06.04.18-.82.81.1-.69.09-.12.99-1.35.06-.11.93-1.14.45-.08,1.53,1.04,1.48.76-.59-.08,1.22.46.49,1.03-.09,1.42,1.4.3-.58.59-.15v1.99s.59.3.59.3l-.12,2.11-2.9-.06-.07.99-.7.03-.08.98-1.45-.02-.08,1.01v-1.02s-1.44-.09-1.44-.09v-1.01s-2.12-.08-2.12-.08l-.07,1.02-3.64-.11-.08,1.02-2.15-.03-.07.99-.7.03-.09.97-1.45-.03-.06,1.01-1.45-.03-.07,1.02.04-1.1,1.42.02.08-1.94-3.58-.16-.08,1.01v-1.01s-1.39-.06-1.39-.06l-.12,3.02,1.44.13h-.72l-.07,1.03-1.43-.02-.07.99-1.49-.06.02-1.01-.72-.08.06-1.1.14.86.61.19.11.85.53.16.54-.12.18-.83.67-.08.09-.87.02-1.93-2.12-.24.69-.09.09-.97.66-.08.12-1.94-.67-2,.73-.22.07-1.82-.71-.16.92-.11.6.76.6-.79.05-.81-.75-1.79-.55-.27.02-1.01-.67-.11v-.99s-.69-.09-.69-.09l.03-1.08,1.42-.06.12-.99.78.04.07.89.58.13,1.98-.14.7-.69-1.1-1.92-2.96-.29.58-.32.16-.86.57-.23.21-.67-.62-1.21-.78.05-.74,1.18-.3-.71-1.83-1.31-.71.83h-1.43s-.14.95-.14.95v-2.04s-2.04-.06-2.04-.06l-.14.95.12-4.11-.7-.13,1.42-.07.13-.98,2.26.08.13.82.95-.08.35-1.67,2.01-1.32,1.14-2.67-.23-.78-.51-.14-.65.99-1.35.13-.21.79-.63.14-.17.85-.76-.94-.46.16-1.04,1.72h-2.15s-.13.95-.13.95l-.07-.96-1.41-.14-.1-.86-1.72.11-.05,1.21.48.37.05.92.63.24-.57.31-.05,1.04-.74.69.14.47.31.24.46-1.13,1.05.05.71,1.52-.14,4.1,1.43.14-.13,3.13-.71.04-.06.98-.02.98.71.09-.72.03-.07,1.01h-.71s-.08,1.02-.08,1.02v-1.02s-1.41-.08-1.41-.08l-.58.21-.22.8-3.64-.13-.06,1.01h-.72s-.06,1.01-.06,1.01h-.71s-.12,2.07-.12,2.07l-.75-.05.72-.02.06-.99.02-1-.71-.06.02-1.01-1.4-.06-.09,1,.06-1.12h1.37s.12-2.88.12-2.88l-.68-.15.71-.07.08-.98.06.98.66.08.66-.02.14-.97.02,1.95,1.97.11.11-.94.67-.08.14-.98,1.56.02.6.97.52-.06.35-.85-.17-1.1.6-.85-.42-.65-1.93-.84-.93-1.13-.73-.22-.57.85-.32,2.91-.03-1.01-.68-.1.02-2.01-.67-.11v-.98s-1.33-.06-1.33-.06l-.11.98v-1.01s-.71-.1-.71-.1l.06-2.03-1.43-.09-.19-.77-1.25-.35.02-1.01-.72-.13,2.68-.28.89-.57-.73-1.78-1.21-.44,4.21-.06.06-1.53-1.31-.41.55-.25.32-1.84,1.32-.06.29-3.33,2.04.29.14-.89h.72s1.28-1.94,1.28-1.94l-.21-1.26-.76.36-.89-.18-.17-.76-.56-.26-.08-.89-.59-.22-.05-.93-2.1-.27.68-.11.13-1.01,2.2.05,2.8-1.04.15-2.69-.63-.16.04-1.04.66-.22.44-1.89-.27-1.93h-1.19s-1.57.89-1.57.89l-.06-.65,1.38-.63.09-.89.72-.07.11-.99,7.24.23.12-.99,2.21-.2.72.31.7-.95.06-1.96-.89-.16-.45-.71-.12-2.16-1.31-.35.12-1.2,1.19-.19.32-.9,1.54-.72-.98-.75-1.22-.17-.68.93-2.07.11-.06,1.45.57.34-.69.14-.12,2.8,1.38.17.02.96.67.11-.03,1.09-2.16.03-.12.98-5.16-.26.68-.1.08-.91v-.92s-.68-.21-.68-.21l2.78-.11.16-.87.55-.26-.37-2.43-1.06.21-.05,1.49-.45.52-2.17-.76-.82-.77-1.34-.1-.56.11-.17.85h-1.42s-.1.96-.1.96h-.82s.57-.38.57-.38l.78-1.73-.16-.43-1.03-.07-.78-.63.09-1.09.77-.04,1.24-1.93-.39-.9-.82-.19.75-.08.12-.99.1.92.64.15.73,1.3.54-.27.08-.99,1.87-.88-.49-1.75-1.69-.06-.29.78-.07-1-.65-.14.05-1.13.8.02.05.92,2.14.16.33.56,1.03.2.23-.27-.95-2.45.22-.16.29.61,1.12-.27.53-1.14-.25-1.43-.97-.55-2.56.27-.44,1.62-.73-.04-.06-.97-.67-.17.69-.11.14-.98,1.79-.47-.24-1.57,1.48-.38,1.29.34.2-.95,1.39,1.74.89-.24-.45-1.8-1.69-1.64-.1-1.05,3.58-.08.19-.93,1.3-.08.15-.88.61-.15.22-.92.82.04.6.97,1.49-.76-.83-1.08,1.19-2.05-.18-1.06-2.25,1.14-.82-3.05.81-1.31-.09-1.52.56-.24.55-1.34-.62-2.5" vector-effect="none" fill="#2979b9" fill-rule="evenodd" stroke="#232323" stroke-linecap="square" stroke-linejoin="bevel" stroke-width=".74"/>
    <path d="M89.11,150.96l-.72-.45-.22.61.53,1.35-.25,1.32-2.39,2.94-.86.02-.46,1.26-1.09.77-1.76-.3.72-1.56.81-.47-1.14-.2-1.51,1.03-1.55,2.02-.2.93-2.07.78-.44.86-4.97.37.79.26.4,1.88,1.13.5.76-.57,1.44.64.4,1.05,1.2.69.31,1.29.91-.36.18.9.6.34-.66.24-.22.89-7.32-.33-.71.92-.05,1.04.03.86.66.21-.09,2.09-.69.13-.16,1.98-.67.07-.15,1.99-1.38.06-.12.92-.67.07-.37,7.15-.7.09-.31,6.15-.7.07-.25,5.13-.7.08-.13,2.02-.68.05-.08,1.87,2.05.09.11-.99.02,1.01,1.42.12v.99s.69.09.69.09v.99s1.41.1,1.41.1v1.01s2.16.13,2.16.13v1.01s1.37.06,1.37.06l.08-.99.78.02-.72.07-.12,3,.7.07v1s.7.09.7.09l-.15,4.11,1.44.1v1.01s.7.09.7.09l-.06,2.03,1.44.1-.05,2.04.7.07v1s1.37.06,1.37.06l.07-1,.75.02v1.02s.71.09.71.09l-.06,2.03,1.38.06.09-1.01-.02,1.07-1.5-.04v-1s-.7-.07-.7-.07v-.99l-2.08-.08-.08,1.91.69.09-.05,1.1h-1.43s-.08.99-.08.99l-.7.03-.1,1-.03-.99-2.13-.15-.02-1-.69-.09v-.98s-1.43-.12-1.43-.12v-.98s-.69-.1-.69-.1v-.97s-1.4-.11-1.4-.11l-.04-.98-1.41-.14-.03-.95-.67-.12-.03-.95-.66-.14v-.97s-.69-.1-.69-.1l.02-2.99-.6-.12-.6.07-.28,4.02-.69.04-.12.99h-2.11s-.17,2.99-.17,2.99l-.73.06-.1,1h-1.4s-.08,1.89-.08,1.89l1.42.16-.71.05-.16,3.05-.7.06-.08,1.92.69.09-.06,2.05.7.08v1s.69.07.69.07l-.06,2.05.7.07v1.01s1.43.1,1.43.1l-.06,2.05.7.07v1.01s.69.07.69.07v1.01s.69.07.69.07v1.01s.69.07.69.07l-.1,3.09.71.09-.72.03-.12,2.04h-1.44s-.07.98-.07.98h-.71s-.09,1.02-.09,1.02l-1.43-.02-.11,2.02-.71.04-.12,2.04v-2.01s-1.33-.06-1.33-.06l-.09.97-.7.03-.26,5.13-.71.05-.07.96-.06,2.01.71.11-.71.06-.08,1.92,1.43.12-.16,1.19.87.84-.63.38-.11,2.56.59.23.15,1.78,1.18.25.47-.18.24-.73.65-.11.2-1.91,1.54.11-1.37.15-.07,1.68.64.23-.1,2.15-.69.05-.91,3.03-.77-.57-1.81,1.43,1.07.95.07,1.19.49.76.68-.84.62-.16.19-.82.64-.12.18-1.85.7-.13.15-1.99,2.99.14-.05,2.14-1.44.04-.09.97-.69.04-.09.97-.69.04-.09.97-.69.05-.09.97-1.42.02-.14,2.01-.68.05-.1.96-.68.06-.1.96-1.41.04-.18,2.99-.69.12-.42,13.1.57.25.58,1.91.77-.82.3.72,1.22.39.12.83.59.37.03,1.79,2.8.33-.06,2.17-.64.26-.24.9-1.59-.06-.59-.83-1.03.22-.83,1.41.39,1.06-.62.34-.3.86-.88-.03-.57-.65-.92.15-.32,2.32.61,1.07-.78,3.1.51.84.03,1.28-.51,1.8-1.66,2.29.18,2.07.51-1.41,1.97-1.59.55-2.3,1.07-.58-.3-1.25.62-1.02-.09-2.09.79-1.84,1.05-.18-.46-1.13,1.54-.29.77-.71,1.79.66.42-.46.1-2.22.18.89,2.12.39-.06,3.44-.59.72,1.71.22.09.49.87.25.56.94.93.1.89,1.36v1.05s1.85.08,1.85.08l-1.12-.64v-1.5s-.67-.6-.67-.6l-.7-2.06-1.21-.41-.52-4.4-1.35-.92-.74-.04-1.52-1.28,1.38-1.33,1.06-1.81,1.41,1.65,1.78-1.04,1.58-.3.46-1.64,1.74-1.4-.95-1.16.64-.12.18-.49,1.5-.65.52-.64-.24-2.1.41-1.75-.54-.34,1.41-.11.15-.94v1.16s-.62.17-.62.17l-.22,3.76.28.63.58.23.41,1.39.75-.27.65-.84.51.65.64.03.48-1.56.03,2.01.66.13.32,1.56.29.48.78.1.09.87,1.34.24.02,1.95,2.12.21-.03,1.22-.48.37-.54,1.58.08,1.05.73.42.83-.45.23,2.67.43.59-.61.35-.2,1.92-.59.2-1.3,2.66.6-.41.42.27.26,2.63,1.13.5.23,1.68.96,1.47.61.46.62-.14-.79-3.17-.52-1.07-.93-.46.25-1.66-.6-1.07.07-1.25,1.27-.25.24-.74.2-3.97-.08-.75-.59-.23.02-1.14.63-.29.26-.99,1.33-.73-.77-.74-2.03-.33-.02-1.95-.9-.26-.06-1.05-.96-1.98-1.48-.12-.08-.96-1.35-.15-.08-.97-.66-.14.66-.21.1-.86-.03-.86-.65-.28,2.09-.1,2.61-1.52.12-.55-1.05-.75,1.58-.05.78-1.02,2.14,1.94.75-.24.41-.92.78-.03.57,1.24.54.29.2,1.72,2.01.36.51,1.23,1.01-.92-.9-1.73-1.59-.29-.1-1.85-.52-.31-.13-.82-1.95-.28-.18-.91-1.32-.25.08-1.14-.45-.35-.47-.02-.53.63-.74-.03-.46.71-.8.34-.3.77-.71-.69-.77.62-2.8.02-.2.89-1.42-.06-.15-.94-1.37-.2,1.4-.16.16-1.97.65-.11.07-1.71-.66-.22.16-3.13h2.19s.15-2.05.15-2.05l.78.09-.68.12-.07,1.79,1.4.16v1.09l-1.15.56-.53,1.47.76.6.77-.77.05,1.15.63.41.79-3.35.68-.18.11-.83-.04-.84-.62-.18-.03-.95-.66-.18,1.45-.04.11-.99.74-.03.04,1.04,1.01.15-.84,1.45.04,1.09.33.25.76-.45.71.67.81.08.35,1.52.41-.11.28-1.79.81-.98.68.05.46.49.05.83.58.13,1.32-.07.29-.93.15,2.77,1.15.48.64,1.39.57-.49,1.32-.18.49-2.68-.26-3.63-.42-.44-.08-.88-.58-.32.8.03.02.96,2.12.15.37.57,1.07.15,1.56-2.16,1.1,1.68-.79,1.01.75,1.07-.4,1.03.11,1.43-.57.64.25.81,1.12-.23.31-1.55.71-.19.19-.92,4.43.14.17.9,1.38.34-1.18,2.05.23.46.09-.34,1.56.19.98-.7,1.1-.16.61.73.05,1.24.73.23.8-1.69,2.22-.13.92.26.45,1.4.38-.05-.22-3.12-.72-.39-1.46-.34-.6.84h-.91s-.7-1.03-.7-1.03l-.64.9-1.61-.06-.88-2.02-1.25-.21-.16-.92-2.01-.23-.13-.94-.56-.14-1.32.06-.2.91-2.26-.13.13-2.23,4.3.06.65-.11.29-.66.88-.02-.56-1.5-1.11-.66.62-.3,1.06-2.39.6-.36-.92-1.57-.34-.2-.2.4-1.06.23-.8,1.34-.3,1.87-.16-1.89-.48-.62-.71,1.43-.87-.09.55-.4.17-3.51-2.54-.14-1.55,3.86.44.68.73.18.82-.84-.1,2.22-.16-.89-1.16-.05-.15.88-.66.08-.12.92-.67.07-.11.94-1.51-.04-.06-.98-2.88-.3,2.99.04.18.87,1.04.04.18-.84.55-.25.05-1.32-1.25-.35-.05-1.91-.61-.2-.12-.84-.59-.22-.94-1.75-1.12-.26-.74.74-.13,1.04,1.5.87.21.94.54.47-1.88.42-1.44,1.1-.27.69-1.67.74-.12.98-1.48-.06-.04-1-.7-.13v-1.93s-1.39-.17-1.39-.17l-.03-1.1-.64-1.16,2.33-1.46-.03-1.64,1.36-1.9-1.19-.12-.21.87-.66.08-.3.65-1.02.48-.06,1.04-.69.16-.11.94-1.54-.08-.05-.99-1.42-.18,2.07-.18.17-2.86.52-1.02-.31-.76-2.94-.29-.56.1-.22.9-2.91-.19v-1.11s.7-.02.7-.02l.08-1,.7-.02.09-1.01,2.16.06.07-1h.71s.11-2.07.11-2.07l.78.04v1s1.37.06,1.37.06l.09-1.01v1s3.7.15,3.7.15l.09,1.13,1.53.73,1.59-.61.46-1.82,1.56-.08.7-.91.77-.15-.5-1.4-.48-.36-.04-1.46.42-.66.69,1.2.75-.4.06-1.61-.81-.58,1.18-.55.17-.44-.64-.79-2.27-.37-.44-.68-.73.68.04,1.17-1.05.05-.59-1.46,1.55.17.06-1.07,1.5.06.03.96,2.02.07.14-1.12.7-.9,1.55.11.73,1.08.04.93,1.35.13.4.55.18.76.51.33.27,1.42,2.95-.11.6-3.33-.45-.48-.76.6-2.19-.52-1.47-1.16.78-2.12-.18-.66-1.13-.5.02-1.68-1.51-.41,1.53-.04.46.49,1.4-.32-.64-.68-.66-3.1-1.2-.5,1.54.02.05.97,1.41.13.03.96,3.58.19.1.94.64.15.65,1.02.8.06-1.28,1.54-.99.56.18.64.44.33,1.48-.12,1.25-1.09.43-3.76-.35-1.59-2.02-.63,2.42.08.35-1.02-1.01-.9-.73-.07-.69-1.12h-3.68s-.83-.28-.83-.28l-.76-.84-1.31-.14,1.43-.16.09-1.01,1.42.02.07-.99.7-.02.07-1.01,2.97.11.02,1,.67.07.68-.02.1-1,.02,1.01,2.85.15.71-.02.1-1,1.47.06.03,1,.7.12.16,1.73,1.19.75.48-.32.11-1.04.83-.12.17-.92.17,1.76.5.39-.02,1.97.69.15-.05,2.98.61.38-.91.02-.54-.61-.47.76-2.46.52-.51,1.03,1.15,1.17-1.33.16-.16.86-.81.07-1.34,1.84-.4,1.9-.62.16.72.38,1.95-1.8.27-.7,2.08-.11.2-.8.64-.12.14-.88h.79s-.61.28-.61.28l-.12.93-.53.29-.21.78-1.28.24-.64.59.27,1.23.14-1.07,2.44.51,1.21,2.62-.66,1.02.2,1.32.92.06.43-.75.29-2.65-1.08-.37-.21-2.81.69-.17.15-1.89.7-.12.14-.96.05,1.98.68.2.02,1.86,1.37.19.14.81.58.23.2.73.64.48.25,1.34.93.05.48-1.33-.34-2.12-1.62-.85-.22-1.7-1.01-.16.04-3.66,1.12.04.42.65.73.22.71-.89h.8s.19.86.19.86l.6.21.27.63,1.07.35.74-1.83-.21-.63-1.23-.38-.03-2.19-.53-.81-.84.76-.03-2.38.59-1.79-.65-1.56-.34-.22-.65.85-1.18.39-.42,1.57-1.25.28-.15,1.66-.25-.95-.68-.1v-.97s-.71-.13-.71-.13l.7-.09.12-.99.65-.04.13-2.01,1.4-.05.14-.97,2.21.06.15.9,2.1.22-.43,1.14.2,1.15.82-.33.77-.99.49.58,1.08-.11.98-1.18-2.58-1.01-.18-2.75-1.07-.83-.76.23-.63,1.21-1.58-.64-.75.45h-2.1s-.11.93-.11.93l-1.41.04-.12,1.95-.7.09-.12.98v-2.04s-2.17-.18-2.17-.18l1.52-2.03v-2.09s-.78-1.07-.78-1.07l.86-.16.17-1.9v-.93s-1.42-.17-1.42-.17h2.18s.09-1,.09-1l2.88.07.07-1.93-.69-.08v-.99s-.7-.14-.7-.14l.69-.04.11-1.06,1.31-.08.2-.89.7.86.36-.24.19-.49.78-.21.21-1.07,2.93.18.24.86,1.59.89.29.6.43-1.02-.75-1.55-2.59-2.56-2.06-.11-.51.15-.27.8-.34-1.63-1.06-.24-.55.96.49,1.86-.78-.02-.06-.98-.63-.1-.64.05-.14.96.12-3.29.7.96.43-.23.35-1.67.13.9.59.15.65-.04.12-.98.73.03.07.97,2.83.17.35.62,1.08.43,2.2.09.78-1.06,2.22-.47.72.46.78-1.3.75-.45-.71-.83-.25.46-1.26.52-3.47-.09-.23.88-.12-.95-4.25-.3,1.22-.41.3-.93,2.45-.68-1.57-.22-.35-.54-1.49-.02-1.24-1.35.12-1.22,1.53.05.06.92.61.11,1.43-.9.49-.46.24-1.61-.57-1.11.68-.06.09-.96.66-.08.09-.96h2.15s.14-.96.14-.96l2.98.12-.63.27-.07,2.63.98.3.98,1.14.83.12.39-1.18-.55-.87.11-2.13.65-.43.12-.92.96-.93.37,1.5.95.62.9-.9-.92-2.13.74-.16.16-.95h2.8s.11-.95.11-.95l.89.14-.63.27-.13.75.44,5.22.59-1.27,1.66-.05.12-.53,1.36-.09.19-1.04-.54.48-1.08-.16-.38-.86-1.14-.49.81-1.24.77.77.73.07,3.05-.72.58,1.78,1.52-.49-.92-1.13.66-.36,2.61-3.89,2.47-.11.05.88-.42.61.76.71,1.03-.32.66-1.18,1.12-.48.83.43.05.94h.34s.67-2.88.67-2.88l.66-.09.17-.85.92-.79h1.09s.37-.48.37-.48l-.26-1.13-.81.53-.73-.06-1.14,2.17-1.14.05-1.12.89-.21.77-1.66-.1-1.27-.54-.16-.59-.22.55-1.27.04-.71-.69-2.79,2.12-.18.83-2.08.1-.23.89-1.47-.06-.14-.93-2.03-.2-.17-.88-1.06-.04-.18.83-1.38.08-.11.93-3.61-.05-.12.92-1.39.06-.12.92-1.39.06-.15.95-4.4-.16-.1-.94-.67-.21-.02-1.86-.62-.17.02-1.25.52-.31,1.13-2.06.91-.32-.11-1.29-.46.42-1.03-.14-.46-.71-.59-.15-1.18,1.29-.72-.3-1.18.43.55.84-.29,1.26.88.94-.11.31-2.44.06-.48-.69-.74.29-.9-.77-.49-1.2-.8.82-.14.9-.52.18.94.64.61,1.51-.61.53-.44,1.46-.74.26-.71-.74-.74.07-.69.35-.18,1.04,1.54.38.4.73-.45.73-.81.17.02,1.25,1.1-.61,1.86-.07,1.51.66.08.88,2.02.23-1.39.18-.13,2-2.23-.06-.75,1-.69.05-.11.99-.04-.99-.69-.08-.14-.81-1.23-.72-.58.61-.21,1.88-.66.08-.13,1.93-.79.04-.07-.96-.7-.18.04-1.05,1.22-.44.19-.55-.94-1.52-3.18-1.67-1.18.89.04,1.49,1.03.34.77-.93.05,1.42-1.25.28-.36,2.76-.82,1.94.62,1.01.74-.12,1.1.73.57,1.63.58.23.61-.54.82.38-1.05,5.66-.72.61h-2.86s-.12.94-.12.94l-.65.1-.1.86-1.48.03-.1.99-.02-1-1.43-.11v-.99s-2.09-.08-2.09-.08l-.09,1-3.61-.08-.11,1-2.08.06-.12.92-.62.15-.12.79h-1.51s-.08,1.01-.08,1.01l-1.43-.02-.08,1.01.05-1.14,1.36-.04.07-1.78-3.49-.2-.11.99-.04-.98-1.32-.05-.12,2.92,1.41.18h-.71s-.09,1.05-.09,1.05h-1.39s-.11.96-.11.96l-1.5-.06v-.99s-.71-.11-.71-.11l.03-1.1.36-.56,1-.37-.61-.91.57-1.18-.39-.68-1.45-.46-1.38,1.21-2.33-.25-.02-.99-1.42-.12v-.99s-1.43-.11-1.43-.11v-.98s-.69-.1-.69-.1v-.99s-1.34-.05-1.34-.05l-.08.98-.78-.06.06-1.08,1.42.02.08-1.93-.69-.13,2.9.06.09-1.01,1.49.07v.97s.7.09.7.09l.02.96,2.16.15.1,1.4-.36.74.7.24.11.89.75-.45.35-1.22,1.05-.38.83-1.01-1.37-.44-.58-.68.42-1.03-1.36-1.88.82-.4.15-.97,1.23,1.45.9.44.49-.65-.64-1.78-.55-.27v-1.14s1.15-.6,1.15-.6l.07-.85-.28-.62-1.49.11-.53.13-.24.83-.35-.63-1.09-.25-.41.71.33,1.12-.73-.04-.72-1.09.83-1.87.9-.19.04-1.26-.86-.62-.18-1.98-1.02-.15-1.02.75-.02-3.84-.63-.37,1.04-1.15-.82-.5-.74.05-.34.52.17,7.13,1.37.25-.14,3.13-.69.1-.08.92v.92s.67.18.67.18l-.69.03-.08.98-.7.03-.1.99-.02-1-1.38-.09-.81,1.01-3.63-.12-.07,1h-.71s-.07,1.01-.07,1.01l-.7.02-.13,2.05-.75-.06.7-.05.07-.97v-.97s-.68-.08-.68-.08v-1s-1.36-.06-1.36-.06l-.11.99.13-2.83.88-.09-.24-1.25.69-.26.24-.93.24.85.45.21.47-.18.31-.81,1.42.17-.2-1.61-.5-.34-.77-2.95-1-.04-.27.79-.07-.99-.66-.13.04-2.03-1.39-.11-.69-1.08-.73-.03-.02-1.01-.67-.07-.72-1.12.71-1.02.09-.98-.72-.13.8.03.69.31,2.03-.43.54-.75-.68-.53-.55-1.26-1.26-.32.07-1.16.87.91,1.66-.31.83-1.47.42-2.13.78-.04.9-.68.13-.9.83-.31-1.02-.92-.83-.2-.66-.97-1.43-.17.09-1.12.22.77,1.21.27h.73s.62-.85.62-.85l.23-1.09-.9-1.03-.05-2.09,1.09-2.1h.84s.07.88.07.88l.45.4.86-1.14-.45-1.37-1.69-.75.7-1.07-.61-1.13.78-.13.63,1.3.86-.08.08,1.16.5.78.72.35.42-.49.13-.56-.99-2.36-.89-.09-.68-1.27-1.49-.57.12-1.9.53,1.06,3.63-.4.26-.89,6.59.14.77-1.04h.73s.12-.55.12-.55l1.87-.07.4-1.03-1.52-.15.02-2.01-.34,2.08-.49.33-1.46-.1-.77.98-5.12-.3.06-1.23-.72-.62-.52,2.05-1.06.73-.75-1.14-.08-.88-.6-.2-.05-.92-.67-1.1-1.34-.05-.89,1.98-.05-1.15-.89-.59-.43-1.56.73-1.02.54-2.07-.1-1.28-.78-.85.67-.35.79-1.42.71.5.35-.23.93-2.54.26-2.08-.55-1.55" vector-effect="none" fill="#73b2d8" fill-rule="evenodd" stroke="#232323" stroke-linecap="square" stroke-linejoin="bevel" stroke-width=".74"/>
    <path d="M84.13,183l-.36,1.27.1,2.54-.68,1.27-.19,1.66-.63.34-.17.64-2.96-.16-.79.99.37,1.32-.23,1.04.34.47,1.32.25-.27,1.54-.81-.03-.7-.82-.78,1.09-1.1.55,2.5,1.03.29.72.04,2.55-.93,1.47-.33.2-.71-.63-.73-.04-.69-1.06-.63.05-.12.93-.81-.03.66-1.07-.41-.24-.12-.93-2,1.44-.3.75-.79-.04-.65-.73-2.24.79-1.13-.74-.18-3.76,1.08-1-.31-1.06.37-.66-.02-2.25.78-1.22.42-1.73-1.23-2.49.63-1.02-.84-1.08.52-1.02v-1.49s-.37,1.02-.37,1.02l-.73.42-.31,3.13-.79,1.01-.36,5.22-.64.27-.14.74-.13,4.18-.6.4-.28,1.79-.7.89.14.58,1.13.32.47-.17.3-.8.12.97,1.35.22.06.92.63.16.05.92,1.33.15.09.96,2.07.18.1.94,1.19.05.13-.9.83.02-.71.17-.12,2.89.67.11v.97s.7.15.7.15l-.13,4.07,1.41.13v.97s.7.14.7.14l-.04,1.98,1.41.13-.02,2,.67.12v.97s1.32.06,1.32.06l.1-.96.76.02.03,1,.7.12-.04,1.97,1.3.05.12-.97-.02,1.13-1.52-.05-.04-.94-.66-.12-.07-.9-1.87-.02-.06,1.56.59.22-.06,1.17-1.36.11-.14.89-.62.15-.21.91-.25-.78-1.96-.4-.08-.89-.62-.18-.1-.86-1.36-.21-.16-.78-1.14-1.21-.93-.04-.5-.85-.98.16-.24.33,1.03.27.11,1.33,1.43.97.69,1.03,1.03.32.84,1.52-.53,1.15-1.55-.19-.08,1.22,1.18.92-.14,1.04-.73,1.01.43,1.13-.83-.03-.14-.81-.61-.18-.58-1.31-2.28,1.71-1.45-.43-.47-.32-.03-1.05-1.65-.05-.7-.88-.88-.06-.18-1.74-.55-.58,3.99-1.66.21-1.08.85-.19.06-1.04-.62-1.07,1.1-4.14-.16-.53-1.15-.68-1.38,2.29-1.26.27-.32.56-.16,1.15,1.52.6v1.53h-.8l-.25-.77-1.17-.34-.59.08-.19.95-1.25.14-.06,1.43,1.29.38-.68.15-.19,2.95-.65.19-.11.82.04.83.61.19-.03,2.01.66.12.02.96.68.16-.04,1.96.67.12v.97s1.43.14,1.43.14l-.03,2.02.68.1v.97s.69.1.69.1v.98s.69.1.69.1v.97s.69.1.69.1l-.07,3.06.69.14-.7.09-.14,2.01-1.41.03-.1.95-.68.06-.13.98h-1.38s-.13,1.96-.13,1.96l-.69.11-.15,1.99-.27-1.72-.42-.24-.7.91-.61.16-.36,4.92-.68.15-.1.86-.02,1.91.67.21-.66.2-.07,1.64,3.05.98,1.78,3.23,1.46.3.95.89.43,1.28,1.56.21-.14,1.2-1.46-.34-1.74,1.09,1.17.74,2.02.34-.08,2.31-1.29.22-2.52,3.88-1.16.42-.33,1.71-1.86,2.85.79.12.99-.87,5.13-6.5,1.31-.18.34-1.93,1.48-.14.63-.6-.57-.65-1.55-.37.16-3.34,1.37-.09.2-.92,1.47.07.71.73.74-.12.61,1.67,1.68.07.37-.31.14-1.76-.58-1.14,1.39-.06.17-.94.17.85.82.33-.49,1.02.85.76.63-.9.13-1.89.83-.05.07.97.66.13.05.92,1.39.24-.1,1.21-.72-.55-.58.33.49.12v1.74s.73.11.73.11l.67,1.74.76-.56.7.99.78.15.7,1.07.04,1.11-.39.33-1.16-1.71-1.49.44-.97-.64-.5.66-.36-1.37-1.27-.05.66.42.18,2.27,2.31.42.25,1.65,1.1.66-1.37.24-.64,1.22-1.37.1-.36.37v1.29s-.6.78-.6.78l-.21,1.3-.97.75,1.46.79.09.47-2.02.21-.64.58-.29,2.08.67,1.39-1.72.49-.05,1.19.94-.76,1.06.16.5.34.43,1.23.32-3.72.7-1.26.98-.57.23-1.86.9-.61.03-2.09,2.17-.28.34-1.95.83.13.6,1.06.68-1,1.37-.1.17-.84.83-.65.38.24.3,1.41.28-.46,1.07-.33.21-1.21,1.48.04.69,1.2,1.47.29,1.51-.75,2.34-.13,1.38-.66,1.28-.16.19.31.38-.57-1.81-.56-.8-.72-1.48.07-.99.54-.44.74-1.47-.1-.29-.85-1.86-.71-2.74.4-.27.86-.45-.55-1.83.4-.35-.54.11-1.12.98-.49.69-1.02-1.22-.61-.77.69-.74-3.15-.67-.32,1.64.04.61.94,1.46.38.43-1.08-1.2-.93-.23-2.27-1.29-.71-.41-1.33-2.26-.22.06-1.09.67-.07.11-.94.67-.07.11-.94h2.15s.1-.95.1-.95l.68-.06.13-2.02.81.05.03.94,1.26.05.14-.96.1.93,1.34.13.53-1.29,1.48-.61-.31-1.06.4-.33h.49s.45.89.45.89l1.06-.02-.25-2.61,2.39.15-.57-2.11-1.01.02.12-1.07-.47-1.1.51-.68,1.49-.42,1.69-.1.51.4.25-1.11-.95-1.17,3.03-.54,1.07.3.35.93,1.35-.37-1.06-.41-.07-.9-1.8-.62-1.91-2.42-.67,1.14-.92-.09.1-2.19-.67-1.02.07-1.1,2.18,1.02,3.16-.8-1.65-2.05.83-.59,1.49.51.65,1.03,1.55.05.63.73.74-.16.72.55.49-1.33,1.95-1.59-.11-.26-2.94-.17-.77.76-1.48.05-.37-.6.19-1.4,1.02-.72,1.37-.02.14-.97,1.36-.03.11-.94.66-.08.09-.96,3,.11.12.91.57.14.58-.09.19-.91.11.94,1.25.15,2.12-.04.19-.93,1.47.05.15.91.96.73h1.3s.5-.67.5-.67l.73.18,1.08,3.7,1.12.73-.02,3.14.42,1.42,1.51-2.4-.23-2.61-1.19-1.62,1.25-2.04-.11-1.25-1.66,1.4-.18-1.96-2.83-.25-1.28-1.14-.8-.1-.76-.99-1.12.09-.26.83-1.31.06-.2.92-.78-.07-.06-.91-1.37-.19-.05-.92-1.94-.08-.17.94-1.47-.06-1.45.99-.79-.03-1.15,1.46-1.13.54-1.37.02-.11,2.04-3.04-.17.07-2.21.81-.55,1.9-.31-.39-.61-2.95.06-1.45-.6v-1.13s.72-.07.72-.07l.11-.99,2.21-.2,3.74.6.49-1.15-.2-.45-1.79-.63.7-.13.09-.97,1.42-.02.12-.99.04.99,2.77.11.09-.96,1.42-.03.1-.96.68-.06.1-.96,1.41-.04.13-.98.77.05.04.94,2.12.19.04.94.72.19.07.76.6.21.2.73,1.15.49.56-1.05-.52-1.13,2.13-.03.15-.95.07,1.13.59.91,1.46.39.16-1.05.39-.16-.15-.49-1.09-.67,2.12-.05.17-.94h2.8s.06-1.7.06-1.7l-.64-.15-.06-.91-.66-.23.61-.27.13-.75-1.2-1.09.74-1.02-.24-5.75.38-.43,1.21.3.94,1.12.7-1.41-1.62-.73-.55-1.44.08-1.18,1.95-.3,1.17-1.99,2.2.15.92-2.58.94-.1.67-1.02-.14-1.49-.15,1.33-2.38.75-.36,1.65h-2.39s-.1.59-.1.59l-1.05.59-.4.75-.7-1.05-2.09,3.12-1.7.66.76,3.16.86,1.08-2.03,2.88-.19,2.57.54,2.28,1.09.68-2.43.09-.49-1.84-1.82,1.07-.49,1.55-.34-.62-1.09-.46-1.31.09-.2.87-.1-.94-1.37-.19-.04-.94-1.97-.07-.16.94-3.47.09-.15.88-.88.85.74,1.15-.77.09-.78,1.23-.69-1.12-2.12-.29-.09.97-1.42.02-.17,1-.05-2.9-1.76-.05-.26.84-.7-.95-.59.78v1.76s1.25.43,1.25.43l-.68.05-.13,1.17-1.14.75-1.87-.02-.07-.9-.66-.23.02-1.05-1.61-.74-.43-1.17-.73-.17-.69-1.12-.79-.03-.1-.86-1.32-.25-.07-.89-1.37-.18-.77-1.96-1.11-.04-.17.85-.82-.06.04-1.14,1.38-.08.07-1.71-.59-.29h2.82s.16-.95.16-.95l1.47.04.25.77,1.15.94.52-.47-.42-.12-.4-3.05.9-1.49,1.18-.51-1.37-1.29-.46-1.92-.42-.14-1.06,2.18.41,1.06-.67.26-.18.84-.63.12-.15.87-.16-.91-.59-.13h-.73s-.19.68-.19.68l-.59.28-3.58-.1-.1.96-.68.05-.09.96-.68.06-.14,1.99-.76-.02.62-.2.07-1.73-.64-.15-.03-.95-.62-.1-.63.05-.18.92-.39-2.46-.48-.36-.41-1.36-.86-.13.99-1.01-.57-1.07-1.64-.62-.76.68-.81-.19.1-.4,1.07-.13v-1.9s-.98-.27-.98-.27l-2.02.84-.95-.08v-.34s1.42.03,1.42.03l.11-1.03,2.27.08.3.59,1.8.18,1.4-.54,1.33-1.4v-1.2l-1.69-.75-.12-.69-.73-.05-.12-.96-.57-.14-.75-1.19.31-1.03-.23-1.16.62-.91.37-3.1.92-.8.99-.19-.31-.15.28-1.51,2.02-3.01.04-.97-1.04-.6-.29-2.79" vector-effect="none" fill="#c8dcf0" fill-rule="evenodd" stroke="#232323" stroke-linecap="square" stroke-linejoin="bevel" stroke-width=".74"/>
    <path d="M75.87,205.25l-.72-.22-1.96,2.26.07,1.44,1.17,1.75v3.65s1.19.42,1.19.42l.68,1.09.18,1.73,1.18.44.96,2.7.3.23.66-.78.84.02.18.9.7.34.19,1.47.28.22.83-.68v1.14s-2.53.94-2.53.94l1.02.87-.05,1.27-1.26.5-1.08,1.65-.15,1.99-1.67-.12-.49-1.93-.79,1.37-.7-.8-1.22,1.22-.39,1.09.5.34.23.95.75-.42.05,1.09.62.45.18.76-.23.29-1.93-.74-1.07.21-.23,1.48,1,.82-1.86.44-.44.56-.7-.76-2.43.76.3-1.38-1.38-.18-.48-1.35-1.06-.46-.94.11-.27-1.62-.88-1.25-.72-.44-.34.39-.29.44.54,1.06.29,2.59,1.18.44.17,1.75,2.54,3.61v2.25s.7,1.07.7,1.07l-.71,1.02-.12,1.35-1.84,1.59-.23,1.16,1.77-.72.35-.84,1.2-.88.23-2.47.97-.14-.3-.08v-3.2s1.04-.6,1.04-.6l1.35-1.71.7.97h1.05s.23-.45.23-.45l-.77-.69.1-.67h1.67s.68-.66.68-.66l.08-1.12h1.61s-.15,1.44-.15,1.44l1.49-.31.55,1.37,2.98.98-.22,2.9-.89.2.07.31,2.35,1.88.73.07.28-.72.49-.13,1.46.3.19.61-.47,1.03-1.42.81-.65.94-.87.03-.64.79-.73-.06-.3.43,1.72.91.8-1.46,1.63-.11,1.36-.98,1.75.24.43-.39-.65-1.22.81.08-.07,1.08.5-.19.89,1.1.81.18-.67,1.14-.16,3.13-.52,1.02.47,1.07-.86,2.06.07,2.56-1.18.4-.36,1.65-1.26.5,1.62.33.98-.99.28-1.79.65-.1,1.21-1.12.98-2.16.79-.18-1.83-1.12.96-.57.47-.85,1.47-.56-1.32-1.1,2.24-.96-.54-.96.51-1.13-.49-1.28.89-.2,1.09-1.6.38-2.31,1.65-.15.32-.58-1.74-.73-.77-1.6,2.31.07,2.97-.64.24-1.16-1.65-.4-.77-.66.82-.63,2.04-.14.12,1.3,2.06-.41-1.87-.31-.13-.99-1.17-.29-.97-1.4-.95-.05-.11-1.84-.34.04-.28-.63.47-.21.2.73,1.09-.1.72-1.49,1.3-.2.29-.86,1.47.04.19-.59,1.31-.23,1.89-1.46.4-.8,1.08-.22.43-.81.7,1.02h1.47s.43-1.06.43-1.06l1.3-.21.71-1.12.23-1.24-.32-.04-.09,1-.94.03-1.37,1.94-1.31-.09-.02-.96-.66-.13-.08-.55-.73-.05-.62.9-1.25.27-1.18,1.75-.85-.11-.59-.73-.4.52.16,1.05-.58.74-1.19-.17-.26-.47-1.47-.07-.79,1.42-1.43-1.15-.76.64-.66-1.74-.88,1.64-.77-2.23,1.19-1-.9-1.32-.74.12-.71-.71-.75.27-.71-.58-.74,2.15-.78-1.01-.52.1-.26.87-.24-1.21-1.93.29-2.22-1.41.28-1.13-.67-1.07.6-1.26h.73s.18-.55.18-.55l.58-.07.59.1.11.68,1.24-.82-2.06-1.13,1.06-1-.1-1.07.37-.54,1.06-.42-1.12-1.36-1.24.86-1.19,2.59h-.84s-1.97-2.54-1.97-2.54l-1.56.06-1.48-.91-.74.19-2.14-2.54-.68-.3-.78.98-.46-2.86-.73-.25-.04-1.8.07-1.01.92-.06.1-.58.43-.43v-.07" vector-effect="none" fill="#f7fbff" fill-rule="evenodd" stroke="#232323" stroke-linecap="square" stroke-linejoin="bevel" stroke-width=".74"/>
  </g>
  <g id="Map_1:_ne_x5F_10m_x5F_populated_x5F_places_x5F_simple" inkscape:groupmode="layer" inkscape:label="Map 1: ne_10m_populated_places_simple">
    <rect x="-179" y="-45" width="841.71" height="595.05" fill-opacity="0"/>
    <g>
      <path d="M88.52,232.19c0,2.35-1.9,4.25-4.25,4.25s-4.25-1.91-4.25-4.25,1.9-4.25,4.25-4.25,4.25,1.9,4.25,4.25" vector-effect="non-scaling-stroke" fill="#326d22" fill-rule="evenodd" stroke="#232323" stroke-linecap="square" stroke-linejoin="bevel" stroke-width=".24"/>
      <path d="M184.1,466.59c0,2.35-1.9,4.25-4.25,4.25s-4.25-1.91-4.25-4.25,1.9-4.25,4.25-4.25,4.25,1.91,4.25,4.25" vector-effect="non-scaling-stroke" fill="#326d22" fill-rule="evenodd" stroke="#232323" stroke-linecap="square" stroke-linejoin="bevel" stroke-width=".24"/>
      <path d="M220.53,455.2c0,2.35-1.9,4.25-4.25,4.25s-4.25-1.9-4.25-4.25,1.9-4.25,4.25-4.25,4.25,1.9,4.25,4.25" vector-effect="non-scaling-stroke" fill="#326d22" fill-rule="evenodd" stroke="#232323" stroke-linecap="square" stroke-linejoin="bevel" stroke-width=".24"/>
      <path d="M98.59,40.81c0,2.35-1.91,4.25-4.25,4.25s-4.25-1.9-4.25-4.25,1.9-4.25,4.25-4.25,4.25,1.9,4.25,4.25" vector-effect="non-scaling-stroke" fill="#326d22" fill-rule="evenodd" stroke="#232323" stroke-linecap="square" stroke-linejoin="bevel" stroke-width=".24"/>
      <path d="M234.75,375.25c0,2.35-1.9,4.25-4.25,4.25s-4.25-1.9-4.25-4.25,1.91-4.25,4.25-4.25,4.25,1.9,4.25,4.25" vector-effect="non-scaling-stroke" fill="#326d22" fill-rule="evenodd" stroke="#232323" stroke-linecap="square" stroke-linejoin="bevel" stroke-width=".24"/>
      <path d="M302.32,221.94c0,2.35-1.9,4.25-4.25,4.25s-4.25-1.91-4.25-4.25,1.9-4.25,4.25-4.25,4.25,1.9,4.25,4.25" vector-effect="non-scaling-stroke" fill="#326d22" fill-rule="evenodd" stroke="#232323" stroke-linecap="square" stroke-linejoin="bevel" stroke-width=".24"/>
    </g>
  </g>
  <g id="Map_1:_ne_x5F_10m_x5F_populated_x5F_places_x5F_simple__x28_Labels_x29_" inkscape:groupmode="layer" inkscape:label="Map 1: ne_10m_populated_places_simple (Labels)">
    <rect x="-178.52" y="-45" width="841.71" height="595.05" fill-opacity="0"/>
    <text transform="translate(113.7 172.43)" fill="#323232" font-family="NYTFranklin-Medium, NYTFranklin" font-size="21" font-weight="500" isolation="isolate"><tspan x="0" y="0">Tillamook</tspan></text>
    <text transform="translate(311.61 227.94)" fill="#323232" font-family="NYTFranklin-Medium, NYTFranklin" font-size="21" font-weight="500" isolation="isolate"><tspan x="0" y="0">Portland</tspan></text>
    <text transform="translate(99.83 450.95)" fill="#323232" font-family="NYTFranklin-Medium, NYTFranklin" font-size="21" font-weight="500" isolation="isolate"><tspan x="0" y="0">Corvallis</tspan></text>
    <text transform="translate(87.68 27.18)" fill="#323232" font-family="NYTFranklin-Medium, NYTFranklin" font-size="21" font-weight="500" isolation="isolate"><tspan x="0" y="0">Astoria</tspan></text>
    <text transform="translate(221.07 451.54)" fill="#323232" font-family="NYTFranklin-Medium, NYTFranklin" font-size="21" font-weight="500" isolation="isolate"><tspan x="0" y="0">Albany</tspan></text>
    <text transform="translate(235.3 371.59)" fill="#323232" font-family="NYTFranklin-Medium, NYTFranklin" font-size="21" font-weight="500" isolation="isolate"><tspan x="0" y="0">Salem</tspan></text>
    <line x1="87.66" y1="232.19" x2="204" y2="252.53" fill="none"/>
    <line x1="90.12" y1="232.62" x2="206.46" y2="252.95" fill="none"/>
  </g>
</svg>