<?xml version="1.0" encoding="UTF-8"?>
<svg id="Layer_1" xmlns="http://www.w3.org/2000/svg" baseProfile="tiny" version="1.2" xmlns:cc="http://creativecommons.org/ns#" xmlns:inkscape="http://www.inkscape.org/namespaces/inkscape" viewBox="0 0 841.68 595.2">
  <!-- Generator: Adobe Illustrator 29.6.1, SVG Export Plug-In . SVG Version: 2.1.1 Build 9)  -->
  <g id="Page" inkscape:groupmode="layer" inkscape:label="Page">
    <path d="M-.48-.48h842.67v596.25H-.48V-.48" vector-effect="none" fill="#fff" fill-rule="evenodd"/>
  </g>
  <g id="Map_1:_Background" inkscape:groupmode="layer" inkscape:label="Map 1: Background">
    <path d="M0,0h841.68v595.13H0V0" vector-effect="none" fill="#fff" fill-rule="evenodd"/>
  </g>
  <g id="Map_1:_ne_x5F_10m_x5F_admin_x5F_1_x5F_states_x5F_provinces" inkscape:groupmode="layer" inkscape:label="Map 1: ne_10m_admin_1_states_provinces">
    <rect x="0" y="0" width="841.71" height="595.05" fill-opacity="0"/>
    <g>
      <path d="M74.59,654.56l.07-9.5-1.77-9.21-2.7-7.41,3.17-14.44.92-9.26,4.64-7.85,3.1-10.16,4.89-10.26,1.11-9.87.49-3.89,2.84-2.43,2.67-3.46.05-5.71-2.58-4.38.61-4.25,4.05-12.32,2.03-15.6,3.45-23.81-3.81-5.87.81-5.12,4.08-9.4,7.84-11.35,3.28-12.37,2.7-12.89.49-7.08.94-9.77.45-10.05-2.43-6.02,3.71-17.57,1.25-4.1,1.7-10.87,1.09-10.74-3.56-16.6-5.69-2.82-5.17-.88.15-3.57,7.75-2.35,3.32-6.35,1.31-8.63,1.16-6.85,1.48-5.56,1.36-3.41,1.34-2.99,1.63.9-.87,2.13-2.64,15.92,6.33-5.35,4.87-8.2,5.24-6.19-13-8.46-5.61-10.26,1.15-22.18,4.85-11.1,2.28-16.83,2.22-4.5.46,16.5,1.81,13.61,6.23,2.83,3.07,6.18,8.04,4.44-1.21-3.62,1.15-2.97,1.88-2.68,1.37-3.47-.6-3.8-1.18-6.59-2.9-2.64-.81-7.27,2.1-11.32-10.82,2.7-8.04-7.91-3.46-4.02,2.39-7.7,3.48-15.69,1.59-14.14,8.05-7.07.14-11.01,1.36-3,2.94-.77,3.12,2.31,2.93,1.94,2.14.46,2.96-1.75,3.34-5.82-2.27.84-1.65.27-1.58.68-4.15-1.07-2.19-2.82-1.45-3.87-3.53,1.83-1.48,3.75-3.49,1.82-1,6.11-.31,6.86-2.17,4.07-.39-3.71,1.4-16.31-.95-14.69-1.96-4.79-5.81-4.39-1.76-4.82.74-4.15-1.6-.96-3.3,1.08-.2-3.92,5.34-7,.94-7.49,3.18-10.17,2.19-30.03-.6-12.61-3.18-11.29-7.17-10.42,3.22-5.17,3.54-2.28,3.45-7.3,4.93-2.58,6.39-3.61,2.3-6.65,2.33-11.1-1.34-12.23-2.09-23.42-1.88-9.05h52.26l.26.35v-.35s312.65,0,312.65,0l1.4.93,9.02,7.8,6.47,8.25,6.12,10.91,4.5,11.8,3.35,20.06,4.67,5.94,5.76,5.17,4.92,6.78,1.95,8.71,2.27,23.72,6.22,18.46-.94,9.64-2,10.52-.07,11.92,7.91,14.7,1.31,5.19-.51,5.73-1.84,10.01-.52,5.78,1.22,20.49,2,11.76,3.16,8.81,6.13,7.47,8.52,7.14,8.93,5.43,28.54,6.65,14.89-3.71,5.46.33,11.75,6.52,18.64,5.52,10.82,6.57,30.99,1.29,29.33,11.51,7.14-1.79,6.38-4,27.6-7.79,66.04-24.06,14.86-9.02,25.49-20.84,15.35-8.47,9.9-1.81v494.04H74.59" vector-effect="none" fill="none" stroke="#232323" stroke-linecap="square" stroke-linejoin="bevel" stroke-width="1.87"/>
      <path d="M0,0" vector-effect="none" fill="none" stroke="#232323" stroke-linecap="square" stroke-linejoin="bevel" stroke-width="1.87"/>
    </g>
  </g>
  <g id="Map_1:_ne_x5F_10m_x5F_populated_x5F_places_x5F_simple" inkscape:groupmode="layer" inkscape:label="Map 1: ne_10m_populated_places_simple">
    <rect x="0" y="0" width="841.71" height="595.05" fill-opacity="0"/>
    <g>
      <path d="M174.7,278.25c0,2.35-1.9,4.25-4.25,4.25s-4.25-1.91-4.25-4.25,1.9-4.25,4.25-4.25,4.25,1.9,4.25,4.25" vector-effect="non-scaling-stroke" fill="#326d22" fill-rule="evenodd" stroke="#232323" stroke-linecap="square" stroke-linejoin="bevel" stroke-width=".24"/>
      <path d="M467.16,564.37c0,2.35-1.9,4.25-4.25,4.25s-4.25-1.9-4.25-4.25,1.9-4.25,4.25-4.25,4.25,1.9,4.25,4.25" vector-effect="non-scaling-stroke" fill="#326d22" fill-rule="evenodd" stroke="#232323" stroke-linecap="square" stroke-linejoin="bevel" stroke-width=".24"/>
      <path d="M602.29,257.75c0,2.35-1.9,4.25-4.25,4.25s-4.25-1.91-4.25-4.25,1.9-4.25,4.25-4.25,4.25,1.91,4.25,4.25" vector-effect="non-scaling-stroke" fill="#326d22" fill-rule="evenodd" stroke="#232323" stroke-linecap="square" stroke-linejoin="bevel" stroke-width=".24"/>
    </g>
  </g>
  <g id="Map_1:_ne_x5F_10m_x5F_populated_x5F_places_x5F_simple__x28_Labels_x29_" inkscape:groupmode="layer" inkscape:label="Map 1: ne_10m_populated_places_simple (Labels)">
    <rect x="0" y="0" width="841.71" height="595.05" fill-opacity="0"/>
    <text transform="translate(174.77 274.59)" fill="#323232" font-family="NYTFranklin-Medium, NYTFranklin" font-size="21" font-weight="500" isolation="isolate"><tspan x="0" y="0">Tillamook</tspan></text>
    <text transform="translate(602.36 253.97)" fill="#323232" font-family="NYTFranklin-Medium, NYTFranklin" font-size="21" font-weight="500" isolation="isolate"><tspan x="0" y="0">Portland</tspan></text>
    <text transform="translate(467.22 560.59)" fill="#323232" font-family="NYTFranklin-Medium, NYTFranklin" font-size="21" font-weight="500" isolation="isolate"><tspan x="0" y="0">Salem</tspan></text>
  </g>
</svg>